<?xml version="1.0" encoding="UTF-8"?>
<!DOCTYPE svg PUBLIC "-//W3C//DTD SVG 1.1//EN" "http://www.w3.org/Graphics/SVG/1.1/DTD/svg11.dtd">
<!-- Creator: CorelDRAW 2019 (64 Bit) -->
<svg xmlns="http://www.w3.org/2000/svg" xml:space="preserve" width="210mm" height="111.421mm" version="1.1" style="shape-rendering:geometricPrecision; text-rendering:geometricPrecision; image-rendering:optimizeQuality; fill-rule:evenodd; clip-rule:evenodd"
viewBox="0 0 21000 11142.12"
 xmlns:xlink="http://www.w3.org/1999/xlink">
 <defs>
  <style type="text/css">
   <![CDATA[
    .fil0 {fill:#FEFEFE;fill-rule:nonzero}
   ]]>
  </style>
 </defs>
 <g id="Camada_x0020_1">
  <metadata id="CorelCorpID_0Corel-Layer"/>
  <path class="fil0" d="M10638.65 77.53l2464.39 1309.01c821.46,436.24 1642.96,872.37 2464.41,1308.22 821.47,435.84 1643.45,871.72 2465.65,1307.56l2959.76 1568.63 -10500.2 5571.2 -146.19 -77.46c-1644.91,-871.7 -3289.85,-1743.42 -4932.77,-2615.12 -821.47,-435.84 -1642.95,-871.97 -2464.41,-1308.22l-2956.42 -1570.41c3499.94,-1856.97 6999.77,-3714.14 10499.79,-5570.97l145.99 77.56zm2172.21 1831.47l-2318.39 -1231.46 -9223.34 4893.73 1972.35 1047.62c821.45,436.25 1642.94,872.39 2464.41,1308.23 1594.25,845.87 3190.4,1691.78 4786.58,2537.65l9222.93 -4893.5 -1974.49 -1046.49c-822.2,-435.85 -1644.18,-871.73 -2465.64,-1307.57 -821.46,-435.84 -1642.95,-871.98 -2464.41,-1308.21z"/>
 </g>
</svg>
